# xmcd
# 
# Track frame offsets:
#     150
#     11530
#     25218
#     42700
#     56618
#     69647
#     84200
#     94614
#     110455
#     127770
#     139441
#     151552
#     167772
#     186767
#     199235
#     218056
#     242264
#     253242
#     265300
#     282747
# 
# Disc length: 3990
# 
# Revision: 0
# Processed by: cddbd v1.5.2PL0 Copyright (c) Steve Scherf et al.
# Submitted via: fre:ac v1.0.17
# 
DISCID=1a0f9414
DTITLE=Various Artist - Country Hits [CD1]
DYEAR=2012
DGENRE=Country
TTITLE0=a - a
TTITLE1=a - a
TTITLE2=Kenny Rogers and Sheena Easton - We've Got Tonight
TTITLE3=a - a
TTITLE4=a - a
TTITLE5=a - a
TTITLE6=Kris Kristofferson - Help Me Make It Through The Night
TTITLE7=a - a
TTITLE8=a - a
TTITLE9=a - a
TTITLE10=a - a
TTITLE11=Nitty Gritty Dirt Band - Mr. Bojangles
TTITLE12=Juice Newton - Angel Of The Morning
TTITLE13=a - a
TTITLE14=Beth Nielsen Chapman - Sand And Water
TTITLE15=The Judds - Love Can Build A Bridge
TTITLE16=Sandy Posey - Single Girl
TTITLE17=a - a
TTITLE18=a - a
TTITLE19=a - a
EXTD=
EXTT0=
EXTT1=
EXTT2=
EXTT3=
EXTT4=
EXTT5=
EXTT6=
EXTT7=
EXTT8=
EXTT9=
EXTT10=
EXTT11=
EXTT12=
EXTT13=
EXTT14=
EXTT15=
EXTT16=
EXTT17=
EXTT18=
EXTT19=
PLAYORDER=
